<?xml version="1.0" encoding="UTF-8"?>
<!DOCTYPE svg PUBLIC "-//W3C//DTD SVG 1.1//EN" "http://www.w3.org/Graphics/SVG/1.1/DTD/svg11.dtd">
<!-- Creator: CorelDRAW 2018 (64-Bit) -->
<svg xmlns="http://www.w3.org/2000/svg" xml:space="preserve" width="5025px" height="2462px" version="1.1" style="shape-rendering:geometricPrecision; text-rendering:geometricPrecision; image-rendering:optimizeQuality; fill-rule:evenodd; clip-rule:evenodd"
viewBox="0 0 4573.74 2241.42"
 xmlns:xlink="http://www.w3.org/1999/xlink">
 <defs>
  <style type="text/css">
   <![CDATA[
    .fil0 {fill:black;fill-rule:nonzero}
   ]]>
  </style>
 </defs>
 <g id="Layer_x0020_1">
  <metadata id="CorelCorpID_0Corel-Layer"/>
  <path class="fil0" d="M2327.92 1827.88c-114.09,0 -200.19,-95.61 -200.19,-222.36 0,-79.34 45.32,-197.33 170.22,-197.33 115.78,0 196.65,90.83 196.65,220.91 0,95.7 -52.1,198.78 -166.68,198.78zm-11.41 -447.78c-154.23,0 -266.11,104.09 -266.11,247.6 0,130.04 112.92,228.31 262.54,228.31 147.63,0 258.92,-107.71 258.92,-250.49 0,-126.35 -112.08,-225.42 -255.35,-225.42z"/>
  <path class="fil0" d="M2882.18 1419.61c2.02,-3.29 8.04,-5.02 16.76,-5.02l30.01 0c5.19,0 12.09,0.84 14.74,4.86 2.45,3.65 1.89,10.16 -1.69,18.72l-27.43 67.13 -30.82 -71.55c-2.05,-4.46 -3.89,-10.61 -1.57,-14.14zm110.45 436.38l41.05 0 144.63 -379.85c20.58,-54.08 29.09,-61.55 70.07,-61.55l5.23 0 0 -23.78 -157.98 0 0 23.65 5.02 0.13c28.4,0.8 42.99,4.1 47.54,10.88 2.84,4.31 2.13,11.49 -2.26,22.82l-121.69 318.83 -87.58 -208.62 44.79 -109.28c10.09,-23.91 21.98,-34.63 65.85,-34.63l5.15 0 0 -23.78 -302.64 0 0 23.78 5.14 0c37.01,0 55.65,5.38 68.7,37.47l56.97 138.53 -71.43 176.53 -125.07 -314.65c-4.9,-12.33 -5.45,-21.69 -1.32,-27.76 4.54,-6.63 15.1,-10.12 30.77,-10.12l17.24 0 0 -23.78 -194.93 0 0 23.78 9.48 0c44.19,0 59.06,7.39 79.35,58.77l149.6 382.63 41.91 0 86.42 -212.08 89.99 212.08z"/>
  <polygon class="fil0" points="1870.24,1105.1 2703.47,1105.1 2703.47,1086.51 1870.24,1086.51 "/>
  <path class="fil0" d="M917.06 1607.3l53.31 -146.19 55.24 146.19 -108.55 0zm245.55 173.07l-150.25 -399.05 -73.25 0 8.6 20.93 -129.12 352.45c-22.46,60.91 -28.48,66.61 -72.27,67.22l-5.02 0.11 0 23.71 174.92 0 0 -23.82 -16.56 0c-46.36,0 -52.59,-10.7 -52.59,-21.22 0,-6.99 6.04,-22.57 10.45,-33.98 1.28,-3.22 2.45,-6.36 3.46,-9.17l40.13 -108.55 140.45 0 46.56 126.51 1.13 2.62c2.69,6.63 6.39,15.66 6.39,24.74 0,13.45 -7.07,19.05 -50.51,19.05l-23.7 0 0 23.82 206.38 0 0 -23.82 -5.14 0c-33.83,0 -46.53,-5.71 -60.06,-41.55z"/>
  <path class="fil0" d="M726.83 1903.02c-63.63,113.26 -158.28,170.7 -281.29,170.7 -182.41,0 -325.18,-159.29 -325.18,-362.61 0,-199.4 125.54,-333.42 312.24,-333.42 123.09,0 223.61,67.81 262.29,176.94l1.21 3.45 31.34 0 -11.17 -180.11 -25.15 0 -1.49 2.34c-0.76,1.08 -4.18,4.7 -16.79,4.7 -11.25,0 -25.59,-4.94 -45.48,-11.82 -40.69,-13.94 -102.2,-35.06 -201.72,-35.06 -246.63,0 -425.64,166.67 -425.64,396.31 0,219.56 174.11,378.82 413.91,378.82 72.16,0 121.65,-11.54 161.43,-20.82 28.48,-6.71 53.23,-12.45 79.06,-12.45 7.96,0 15.71,0.48 23.5,1.61l3.34 0.52 1.76 -2.86c28.13,-45.8 59.95,-118.19 75.57,-172.39l1.85 -6.47 -32.06 0 -1.53 2.62z"/>
  <path class="fil0" d="M1606.19 1735.05c-45.6,62.95 -56.64,76.29 -95.69,76.29l-104.74 0c-18,0 -23.43,-4.98 -23.43,-21.25l0 -328.72c0,-40.5 8.76,-44.03 53.28,-44.03l31.58 0 0 -23.82 -220.68 0 0 23.82 15.14 0c43.87,0 51.18,14.86 51.18,48.37l0 315.78c0,32.53 -8.88,41.94 -39.78,41.94l-28.67 0 0 23.86 326.97 0 60.35 -114.37 -23.95 0 -1.56 2.13z"/>
  <path class="fil0" d="M2000.73 1732.91l-1.52 2.13c-45.6,62.95 -56.6,76.32 -95.65,76.32l-104.82 0c-17.92,0 -23.34,-5.02 -23.34,-21.29l0 -328.71c0,-40.5 8.64,-44.03 53.27,-44.03l31.53 0 0 -23.82 -220.6 0 0 23.82 15.12 0c43.78,0 51.17,14.91 51.17,48.37l0 315.78c0,32.53 -8.88,41.94 -39.76,41.94l-28.66 0 0 23.86 326.91 0 60.38 -114.37 -24.03 0z"/>
  <path class="fil0" d="M3335.08 1606.12l53.27 -146.23 55.28 146.23 -108.55 0zm245.63 173l-149.13 -395.65 -1.13 -3.37 -73.31 0 8.55 20.89 -129.04 352.49c-22.38,60.91 -28.48,66.53 -72.28,67.25l-5.06 0.09 0 23.74 174.96 0 0 -23.83 -16.55 0c-46.28,0 -52.63,-10.76 -52.63,-21.28 0,-6.96 6.07,-22.54 10.48,-33.92 1.29,-3.29 2.45,-6.42 3.55,-9.2l40.05 -108.55 140.49 0 46.52 126.51 1.12 2.62c2.65,6.58 6.43,15.62 6.43,24.7 0,13.51 -7.07,19.12 -50.58,19.12l-23.66 0 0 23.83 206.46 0 0 -23.83 -5.18 0c-33.87,0 -46.57,-5.66 -60.06,-41.61z"/>
  <path class="fil0" d="M3884.79 1415.83l5.06 0c23.38,0 36.73,3.33 40.73,10.16 3.5,6.19 0.53,17.43 -8.83,33.34l-96.26 164.03 -109.59 -169.17c-9.76,-14.95 -13.02,-24.23 -10.41,-29.13 3.25,-6.15 18.2,-9.23 43.96,-9.23l5.1 0 0 -23.87 -199.91 0 0 23.71 4.93 0.16c43.04,1.28 58.58,8.95 93.5,63.91l126.14 196.94 0 99.03c0,29.93 -8.31,46.19 -51.9,46.19l-18.69 0 0 23.83 206.42 0 0 -23.83 -14.38 0c-39.33,0 -51.91,-11.6 -51.91,-47.63l0 -105.5 117.64 -199.16c19.24,-32.25 38.4,-50.45 85,-53.83l4.83 -0.36 0 -23.46 -171.43 0 0 23.87z"/>
  <path class="fil0" d="M4153.01 1364.92c-24.03,0 -43.63,17.96 -43.63,40.01 0,21.22 15.99,37.2 37.08,37.2 4.7,0 7.91,-0.6 10.68,-1.2 2.21,-0.53 4.02,-0.88 6.47,-0.88 3.25,0 4.94,3.29 4.94,9.84 0,23.54 -18.72,47.2 -52.38,66.81l-3.82 2.25 8.47 21.74 4.79 -1.97c48.49,-18.33 82.35,-63.4 82.35,-109.52 0,-36.68 -23.58,-64.28 -54.95,-64.28z"/>
  <path class="fil0" d="M4445.83 1577.81c-51.91,-32.29 -100.97,-62.79 -100.97,-107.22 0,-37.04 30.13,-61.91 74.76,-61.91 47.73,0 90.93,31.73 109.97,80.83l1.32 3.3 21.53 0 -13.49 -100.84 -18.56 0 -1.53 2.05c-3.5,4.82 -5.06,5.05 -8.72,5.05 -8.92,0 -16.19,-2.52 -25.26,-5.78 -15.48,-5.37 -34.39,-11.97 -71.8,-11.97 -75.21,0 -131.89,46.6 -131.89,108.44 0,68.25 63.56,108.5 125.18,147.4 53.19,33.66 103.65,65.44 103.65,111.44 0,51.91 -46.96,79.02 -93.29,79.02 -56.28,0 -101.56,-37.92 -115.45,-96.58l-0.94 -3.98 -23.57 0 16.47 118.65 19.32 0 1.56 -2.26c1.05,-1.68 4.26,-5.58 10.01,-5.58 2.58,0 11.13,2.37 20.21,4.86 20.77,5.79 52.06,14.42 78.78,14.42 85.9,0 150.62,-54.64 150.62,-126.99 0,-72.76 -67.85,-115.02 -127.91,-152.35z"/>
  <path class="fil0" d="M1464.09 2044.24l5.02 0.12c25.35,0.64 26.19,3.77 26.19,18.52l0 113.81 -142.54 -148.6 -57.33 0 0 16.15 4.94 0.12c8.97,0.27 15.75,2.05 21.78,5.74l0 153.75c0,11.01 -3.13,16.15 -20.93,16.15l-6.39 0 0 16.32 84.12 0 0 -16.32 -5.13 0c-25.03,0 -27.04,-3.34 -27.04,-22.57l0 -123.75 157.57 164.85 15.58 0 0 -182.68c0,-7.44 0,-11.49 23.82,-11.49l5.15 0 0 -16.27 -84.81 0 0 16.15z"/>
  <path class="fil0" d="M1805.96 2044.17l4.9 0.19c22.71,1.16 26.32,3.37 26.32,32.1l0 74.24c0,52.8 -36.64,63.88 -67.46,63.88 -43.46,0 -67.41,-22.54 -67.41,-63.64l0 -88.5c0,-14.3 4.06,-18.08 19.97,-18.08l8.03 0 0 -16.27 -92.07 0 0 16.27 5.05 0c19.97,0.36 22.3,2.29 22.3,18.77l0 92.96c0,51.83 38.16,85.33 97.19,85.33 73.31,0 99.3,-46.81 99.3,-86.98l0 -85.89c0,-18.04 5.83,-23.91 23.91,-24.19l5.02 0 0 -16.27 -85.05 0 0 16.08z"/>
  <path class="fil0" d="M2061.25 2136.95l-7.87 0.04c-2.26,0 -4.31,-0.04 -6.71,-0.16l0 -95.05c3.42,-0.21 6.58,-0.21 10.76,-0.21 50.78,0 57.25,25.32 57.25,47.37 0,32.26 -17.43,48.01 -53.43,48.01zm111.25 56.24l-25.16 -25.11c-11.36,-11.44 -20.04,-19.8 -29.61,-27.75 22.87,-9.93 37.13,-30.06 37.13,-53.36 0,-38.65 -33.74,-61.74 -90.43,-61.74 -20.57,0 -27.09,0.35 -40.26,0.96 -4.18,0.2 -8.92,0.48 -13.86,0.72 -10.28,0.56 -20.97,1.17 -26.07,1.17l-5.15 0 0 16.27 12.18 0c15.59,0 18.68,3.45 18.68,20.36l0 134.03c0,18.51 -4.54,21.25 -20.33,21.25l-10.53 0 0 16.35 100.4 0 0 -16.35 -12.46 0c-16.38,0 -20.36,-3.66 -20.36,-18.68l0 -48.33c3.13,0.16 6.58,0.28 11.05,0.28 6.91,0 11.49,-0.25 17.07,-0.44l3.13 -0.12c8.15,5.67 19.01,15.14 30.61,26.76l21.06 20.96c26.11,26.16 41.89,39.7 88.46,39.7 4.26,0 8.88,-0.04 13.75,-0.2l4.94 -0.29 0 -15.42 -4.86 -0.36c-21.25,-1.33 -39.54,-10.78 -59.38,-30.66z"/>
  <path class="fil0" d="M2410.25 2111.45c-22.54,-13.99 -43.71,-27.12 -43.71,-45.44 0,-14.83 12.33,-24.75 30.53,-24.75 20.05,0 38.32,13.42 46.44,34.22l1.24 3.26 14.8 0 -6.71 -50.65 -12.22 0 -1.53 2.05c-0.71,0.84 -0.96,1.08 -0.88,1.08 -0.08,0 -0.24,0.03 -0.72,0.03 -3.5,0 -6.44,-1 -10.44,-2.4 -6.63,-2.41 -15.75,-5.55 -32.84,-5.55 -35.3,0 -61.78,22.02 -61.78,51.31 0,32.01 30.33,51.22 57.21,68.13 23.1,14.62 44.91,28.45 44.91,47.36 0,21.3 -19.52,32.47 -38.76,32.47 -23.83,0 -42.87,-16.11 -48.78,-40.94l-1 -3.97 -15.99 0 8.15 58.65 12.66 0 1.49 -2.25c0.24,-0.36 0.92,-1.25 2,-1.25 1.02,0.05 4.94,1.21 8.36,2.05 9.41,2.65 23.63,6.55 35.96,6.55 39.98,0 70.06,-25.59 70.06,-59.58 0,-33.99 -31.05,-53.31 -58.45,-70.38z"/>
  <path class="fil0" d="M2730.79 2182.34c-7.88,26.79 -13.26,32.26 -32.02,32.26l-49.02 0c-9.63,0 -12.01,-1.21 -12.01,-12.41l0 -62.56 48.69 0c9.68,0 14.1,0 16.48,20.54l0.56 4.57 15.7 0 0 -70.75 -15.91 0 -0.35 4.67c-1.57,17.83 -6.23,19.15 -13.38,19.15l-51.79 0 0 -67.97 62.07 0c5.87,0 14.02,0 18.44,28.37l0.6 4.46 15.63 0 -3.17 -54.61 -162.79 0 0 16.28 12.13 0c17.72,0 20.42,4.62 20.42,20.37l0 134.38c0,15.83 -1.97,20.89 -24.84,20.89l-14.05 0 0 16.35 178.77 0 6.23 -57.69 -15.39 0 -1 3.7z"/>
  <path class="fil0" d="M2926.93 2136.95l-7.79 0.04c-2.29,0 -4.47,-0.04 -6.71,-0.16l0 -95.05c3.37,-0.21 6.5,-0.21 10.76,-0.21 50.62,0 57.25,25.32 57.25,47.37 0,32.26 -17.51,48.01 -53.51,48.01zm111.28 56.24l-25.14 -25.11c-11.37,-11.44 -20.17,-19.8 -29.65,-27.75 22.86,-9.93 37.2,-30.06 37.2,-53.36 0,-38.65 -33.87,-61.74 -90.44,-61.74 -20.56,0 -27.03,0.35 -40.33,0.96 -4.22,0.2 -8.95,0.48 -13.78,0.72 -10.37,0.56 -21.09,1.17 -26.12,1.17l-5.1 0 0 16.27 12.1 0c15.59,0 18.77,3.45 18.77,20.36l0 134.03c0,18.51 -4.63,21.25 -20.34,21.25l-10.53 0 0 16.35 100.32 0 0 -16.35 -12.46 0c-16.42,0 -20.28,-3.66 -20.28,-18.68l0 -48.33c3.1,0.16 6.5,0.28 11.09,0.28 6.79,0 11.45,-0.25 17.03,-0.44l3.05 -0.12c8.2,5.67 18.97,15.14 30.7,26.76l21.05 20.96c26.03,26.16 41.83,39.7 88.38,39.7 4.26,0 8.93,-0.04 13.82,-0.2l4.9 -0.29 0 -15.42 -4.86 -0.36c-21.25,-1.33 -39.53,-10.78 -59.38,-30.66z"/>
  <path class="fil0" d="M3273.56 2044.36l5.13 0c12.86,0 15.28,2.49 15.72,3.21 0.11,0.4 1.29,3.13 -3.94,11.97l-40.58 69.23 -46.44 -71.63c-5.46,-8.33 -4.54,-10.05 -4.54,-10.05 0.05,-0.2 1.53,-2.73 17.12,-2.73l5.1 0 0 -16.27 -94.98 0 0 16.15 5.02 0.12c17.96,0.64 24.24,3.34 39.42,27.27l55.88 87.26 0 43.31c0,12.38 -3.01,17.8 -20.33,17.8l-11.21 0 0 16.32 97.83 0 0 -16.32 -9.28 0c-17.52,0 -20.28,-5.42 -20.28,-18.39l0 -46.28 52.06 -88.35c8.32,-13.78 16.03,-21.14 35.83,-22.62l4.67 -0.36 0 -15.91 -82.2 0 0 16.27z"/>
  <path class="fil0" d="M3432.74 2055.34c-24.27,0 -43.79,-19.57 -43.79,-43.79 0,-24.22 19.52,-43.79 43.79,-43.79 24.27,0 43.8,19.57 43.8,43.79 0,24.22 -19.53,43.79 -43.8,43.79zm0 -91.64c-26.48,0 -47.97,21.34 -47.97,47.85 0,26.43 21.49,47.97 47.97,47.97 26.48,0 47.97,-21.54 47.97,-47.97 0,-26.51 -21.49,-47.85 -47.97,-47.85z"/>
  <path class="fil0" d="M3424.88 2010.3l-2.65 0 0 -24.26c2.4,-0.68 3.58,-1.01 5.58,-1.01 7.84,0 13.7,5.62 13.7,12.94 0,8.91 -8.2,12.33 -16.63,12.33zm26.63 22.22l-14.13 -20.33c10.07,-2.5 15.1,-7.44 15.1,-14.94 0,-9.12 -8.03,-15.23 -20.25,-15.23l-26.03 0 0 2.53c5.1,0 6.18,2.21 6.18,5.74l0 42.23c0,3.78 -1.93,5.94 -7.03,5.94l0 2.21 24.75 0 0 -2.21c-6.07,0 -7.87,-1.56 -7.87,-5.26l0 -19.96 5.1 0 19.81 27.43 12.53 0 0 -2.21c-3.38,-0.27 -5.14,-1.56 -8.16,-5.94z"/>
  <path class="fil0" d="M2460.36 494.39l-43.2 291.31 -261.38 0 -43.14 -291.31 -1.81 -11.93 12.05 0 327.18 0 12.06 0 -1.76 11.93zm-394.41 -28.48l0 -88.22 203.81 0 33.46 0 203.82 0 0 88.22 -13.7 0 -12.05 0 -8.33 0 -8.44 0 -11.92 0 -332.12 0 -12.06 0 -8.36 0 -8.39 0 -11.97 0 -13.75 0zm65.34 348.24l310.46 0 47.36 -319.76 46.37 0 0 -145.11 -232.26 0 0 -173.2c18.12,-14.81 44.72,-44.1 43.64,-87.81 -1.85,-68.22 -60.02,-88.27 -60.02,-88.27 0,0 -60.67,17.93 -60.67,88.27 0,43.06 25.72,72.03 43.59,87.1l0 173.91 -232.24 0 0 145.11 46.31 0 47.46 319.76z"/>
  <path class="fil0" d="M2343.14 273.57c0,0 68.82,12.57 108.79,-40.22 41.06,-54.35 8,-106.3 8,-106.3 0,0 -58.58,-23.83 -102.33,31.1 -41.29,51.82 -14.46,115.42 -14.46,115.42z"/>
  <path class="fil0" d="M2232.61 273.57c0,0 26.75,-63.6 -14.47,-115.42 -43.78,-54.93 -102.4,-31.1 -102.4,-31.1 0,0 -32.99,51.95 8.11,106.3 39.94,52.79 108.76,40.22 108.76,40.22z"/>
 </g>
</svg>
